<?xml version="1.0" encoding="utf-8"?>
<svg viewBox="0 0 500 500" xmlns="http://www.w3.org/2000/svg">
  <title>2Artboard 3</title>
  <g transform="matrix(3.491622, 0, 0, 3.491622, 133.989197, 92.645844)">
    <path fill-rule="evenodd" clip-rule="evenodd" d="M87.975,47.896c-3.571,4.841-8.1,8.636-13.136,11.845   c-0.927,0.591-1.463,1.237-1.762,2.289c-1.578,5.575-3.996,10.796-6.748,15.869c-0.184,0.041-0.37,0.083-0.554,0.124   c-1.414-3.746-2.829-7.492-4.238-11.226c-3.744,1.05-7.645,2.343-11.639,3.207c-4.009,0.867-8.109,1.305-12.354,1.959   c-0.878,8.105-5.461,19.704-9.243,22.758c-3.301-5.137-3.482-13.744-2.651-20.842c-7.254-0.111-16.983-2.962-19.977-6.764   c5.577-3.615,16.091-5.351,24.654-4.508c2.582-9.58,6.861-18.374,12.493-26.438c-3.574-2.287-7.087-4.531-10.598-6.776   c0.06-0.17,0.117-0.338,0.176-0.508c1.267-0.368,2.514-0.859,3.805-1.085c5.095-0.892,10.208-1.685,15.308-2.563   c0.639-0.109,1.293-0.396,1.832-0.758c3.014-2.022,5.988-4.099,8.988-6.138c0.342-0.23,0.76-0.345,1.103-0.496   C64.494,33.669,72.573,43.631,87.975,47.896z"/>
    <path fill-rule="evenodd" clip-rule="evenodd" d="M96.489,15.704c0.228,0.766,0.531,1.365,0.564,1.979   c0.114,2.075,0.306,4.168,0.154,6.232c-0.518,7.046-2.702,13.585-6.271,19.683c-0.511,0.874-1.018,1.151-2.03,1   c-12.614-1.875-22.772-14.283-21.991-26.982c0.037-0.604,0.445-1.538,0.908-1.711c8.43-3.157,17.02-3.983,25.771-1.434   C94.601,14.763,95.536,15.292,96.489,15.704z M82.85,27.012c1.347-1.131,1.516-3.069,0.385-4.44   c-1.122-1.364-3.063-1.565-4.436-0.462c-1.41,1.137-1.594,3.207-0.407,4.568C79.546,28.001,81.499,28.147,82.85,27.012z"/>
  </g>
  <title>1Artboard 66</title>
  <path d="M 129.548 103.259 C 48.633 103.259 -1.942 190.854 38.516 260.929 C 78.975 331.003 180.12 331.003 220.579 260.929 C 229.806 244.948 234.661 226.823 234.661 208.372 C 234.661 150.32 187.6 103.259 129.548 103.259 Z M 189.364 213.529 L 152.344 245.917 C 148.987 248.877 143.685 247.09 142.802 242.702 C 142.723 242.311 142.684 241.913 142.687 241.516 L 142.687 228.081 L 78.831 228.081 C 76.002 228.081 73.706 225.785 73.706 222.957 L 73.706 193.788 C 73.706 190.956 76.002 188.664 78.831 188.664 L 142.687 188.664 L 142.687 175.229 C 142.657 170.752 147.483 167.923 151.375 170.134 C 151.72 170.331 152.045 170.564 152.344 170.827 L 189.331 203.215 C 192.451 205.938 192.468 210.787 189.364 213.529 Z"/>
</svg>