<?xml version="1.0" encoding="utf-8"?>
<svg viewBox="0 0 500 500" xmlns="http://www.w3.org/2000/svg">
  <title>2Artboard 3</title>
  <g transform="matrix(3.410942, 0, 0, 3.410942, 274.187927, 201.516968)">
    <path fill="#000000" d="M18.222,35.281c0.217,1.373,0.501,2.741,0.781,4.088c0.013,0.066,0.027,0.131,0.041,0.195   c-2.166-0.762-4.288-1.269-6.231-1.086c-0.084,0.008-0.167,0.017-0.25,0.027c-1.005,0.127-1.968,0.412-2.863,0.834   c-1.312,0.618-2.478,1.529-3.415,2.661c-0.659,0.796-1.204,1.7-1.609,2.689c-0.131,0.321-0.248,0.651-0.348,0.989   c-0.303,1.015-1.371,1.593-2.386,1.291c-1.015-0.302-1.593-1.371-1.291-2.386c0.33-1.107,0.785-2.161,1.354-3.14   c0.512-0.882,1.116-1.704,1.803-2.453c0.336-0.364,0.691-0.712,1.065-1.04c0.723-0.634,1.504-1.185,2.329-1.647   c0.9-0.502,1.854-0.901,2.846-1.185c0.662-0.191,1.342-0.33,2.034-0.418C14.137,34.44,16.188,34.723,18.222,35.281z"/>
    <path fill="#000000" d="M52.48,5.389c0.101,1.055-0.672,1.992-1.726,2.093c-0.557,0.053-1.077,0.146-1.564,0.274   c-1.074,0.281-1.987,0.729-2.762,1.288c-1.274,0.917-2.177,2.13-2.819,3.386c-0.563,1.104-0.924,2.241-1.156,3.24   c-0.065,0.282-0.12,0.552-0.167,0.808c-0.243,1.346-0.222,2.712-0.067,4.108c0.147,1.339,0.418,2.706,0.696,4.11   c0.353,1.779,0.714,3.6,0.839,5.469c0.052,0.753,0.064,1.515,0.023,2.285c-0.093,1.737-0.406,3.342-0.919,4.768   c-0.38,1.058-0.873,2.019-1.466,2.863c-0.514,0.73-1.104,1.373-1.766,1.918c-0.036,0.03-0.073,0.06-0.11,0.089   c-0.424,0.338-0.874,0.633-1.347,0.888c-0.917,0.492-1.923,0.826-3,0.998c-1.257,0.2-2.612,0.179-4.04-0.069   c-0.942-0.164-1.894-0.415-2.847-0.72c-0.182-1.452-0.457-2.901-0.75-4.336c1.48,0.572,2.901,1.041,4.253,1.275   c0.084,0.015,0.167,0.028,0.25,0.04c1.37,0.207,2.578,0.121,3.613-0.254c0.541-0.195,1.033-0.47,1.477-0.824   c0.675-0.539,1.242-1.262,1.687-2.142c0.489-0.964,0.832-2.116,1.011-3.415c0.058-0.414,0.099-0.843,0.123-1.286   c0.062-1.162-0.032-2.334-0.205-3.531c-0.153-1.068-0.369-2.155-0.59-3.271c-0.411-2.072-0.83-4.191-0.88-6.372   c-0.026-1.075,0.039-2.166,0.239-3.274c0.234-1.296,0.581-2.523,1.034-3.661c0.408-1.029,0.902-1.984,1.475-2.852   c0.367-0.559,0.767-1.081,1.197-1.562c0.544-0.61,1.139-1.155,1.777-1.635c0.8-0.602,1.67-1.099,2.599-1.486   c1.177-0.493,2.449-0.809,3.794-0.938C51.442,3.562,52.378,4.335,52.48,5.389z"/>
    <path fill="#000000" d="M33.827,20.356c0.798,0.113,1.576,0.282,2.337,0.49c0.14,1.455,0.393,2.857,0.66,4.227   c-1.178-0.417-2.345-0.751-3.533-0.919c-3.071-0.433-5.651,0.083-7.259,1.45c-1.309,1.112-1.998,2.807-2.047,5.039   c-0.049,2.241,0.478,4.783,1.038,7.474c0.902,4.346,1.835,8.841,0.491,12.905c-0.803,2.426-2.263,4.552-4.236,6.175   c-0.112,0.092-0.226,0.183-0.342,0.273c-2.098,1.616-4.63,2.608-7.322,2.865c-1.055,0.101-1.992-0.672-2.093-1.726   c-0.101-1.055,0.672-1.991,1.726-2.093c4.021-0.385,7.406-3.014,8.625-6.699c1.021-3.087,0.194-7.069-0.605-10.92   c-0.578-2.784-1.176-5.662-1.117-8.339c0.074-3.328,1.249-6.053,3.399-7.879c0.036-0.031,0.072-0.061,0.109-0.091   C26.113,20.569,29.717,19.776,33.827,20.356z"/>
    <path fill="#000000" d="M63.349,19.417c-0.932,3.128-2.853,5.63-5.557,7.234c-2.378,1.41-5.365,2.13-8.637,2.081   c-1.162-0.019-2.279-0.173-3.362-0.418c-0.179-1.393-0.446-2.736-0.706-4.049c-0.008-0.043-0.017-0.086-0.025-0.128   c1.376,0.44,2.747,0.737,4.151,0.759c3.161,0.047,8.724-0.744,10.46-6.575c0.303-1.015,1.371-1.593,2.386-1.291   C63.073,17.334,63.651,18.402,63.349,19.417z"/>
    <path fill="#000000" d="M6.816,45.565c0.255-0.622,0.582-1.205,0.974-1.736l7.939,9.649c-0.837,0.397-1.75,0.647-2.702,0.739   c-0.154,0.014-0.306,0.037-0.455,0.068L6.388,46.77c0.059-0.14,0.111-0.285,0.155-0.432C6.621,46.077,6.714,45.816,6.816,45.565z"/>
    <path fill="#000000" d="M14.748,40.83l5.264,6.398c-0.043,0.672-0.148,1.299-0.336,1.865c-0.176,0.531-0.413,1.038-0.707,1.513   l-7.738-9.405c0.525-0.198,1.067-0.332,1.62-0.402l0.011-0.001c0.056-0.008,0.112-0.014,0.168-0.019   C13.551,40.731,14.119,40.746,14.748,40.83z"/>
    <path fill="#000000" d="M26.571,28.879l7.522,9.142C33.58,38.089,33,38.073,32.36,37.977c-0.061-0.009-0.121-0.018-0.181-0.029   l-0.016-0.002c-0.735-0.128-1.538-0.342-2.511-0.675l-3.156-3.836c-0.139-0.977-0.219-1.898-0.201-2.738   C26.312,30.004,26.403,29.397,26.571,28.879z"/>
    <path fill="#000000" d="M34.192,26.686L37.742,31c0.016,0.393,0.014,0.764-0.005,1.124c-0.021,0.386-0.057,0.755-0.106,1.104   c-0.09,0.651-0.226,1.249-0.407,1.788l-7.102-8.632c0.846-0.104,1.809-0.086,2.845,0.061   C33.372,26.501,33.779,26.583,34.192,26.686z"/>
    <path fill="#000000" d="M44.609,16.17c0.151-0.651,0.34-1.265,0.566-1.835l6.628,8.056c-0.909,0.163-1.797,0.207-2.556,0.195   c-0.394-0.006-0.789-0.039-1.185-0.096l-3.727-4.53c0.023-0.378,0.065-0.737,0.128-1.084C44.507,16.637,44.556,16.4,44.609,16.17z"/>
    <path fill="#000000" d="M49.753,9.896c0.329-0.087,0.677-0.152,1.039-0.192l6.633,8.063c-0.344,1.104-0.868,1.996-1.593,2.709   l-7.995-9.717C48.404,10.37,49.047,10.081,49.753,9.896z"/>
  </g>
  <path d="M 283.4 122.856 L 140.934 122.856 C 138.954 122.856 137.259 122.007 135.845 120.876 L 129.91 114.941 C 125.953 110.984 120.581 108.722 114.928 108.722 L 71.396 108.722 C 59.806 108.722 50.196 118.332 50.196 129.922 L 50.196 292.459 C 50.196 298.112 52.458 303.482 56.415 307.441 C 60.655 311.681 65.743 313.659 71.396 313.659 C 71.678 313.659 71.962 313.659 72.527 313.659 L 283.684 313.659 C 295.272 313.659 304.884 304.048 304.884 292.459 L 304.884 144.056 C 304.601 132.466 294.99 122.856 283.4 122.856 Z M 78.463 165.257 L 78.463 292.459 C 78.463 296.699 75.071 298.678 74.224 298.96 C 73.093 299.243 69.7 300.656 66.591 297.547 C 65.178 296.134 64.33 294.438 64.33 292.459 L 64.33 129.922 C 64.33 125.965 67.439 122.856 71.396 122.856 L 114.928 122.856 C 116.907 122.856 118.603 123.704 120.016 124.835 L 125.953 130.77 C 129.91 134.728 135.28 136.989 140.934 136.989 L 154.502 136.989 L 149.414 142.077 C 148.001 143.491 146.304 144.056 144.326 144.056 L 99.663 144.056 C 88.074 144.056 78.463 153.667 78.463 165.257 Z M 290.467 292.459 C 290.467 296.416 287.357 299.525 283.4 299.525 L 91.466 299.525 C 92.315 297.264 92.597 295.003 92.597 292.459 L 92.597 165.257 C 92.597 161.299 95.706 158.189 99.663 158.189 L 144.608 158.189 C 150.262 158.189 155.632 155.929 159.589 151.97 L 172.592 138.969 C 174.007 137.554 175.702 136.989 177.682 136.989 L 283.684 136.989 C 287.641 136.989 290.75 140.098 290.75 144.056 L 290.75 292.459 Z"/>
</svg>