<?xml version="1.0" encoding="utf-8"?>
<svg viewBox="0 0 500 500" xmlns="http://www.w3.org/2000/svg">
  <title>2Artboard 3</title>
  <rect x="311.403" y="11.696" width="147.661" height="147.661" style="fill: rgb(255, 0, 0);"/>
  <rect x="311.403" y="174.707" width="147.661" height="147.661" style="fill: rgb(0, 255, 25);"/>
  <rect x="311.403" y="336.526" width="147.661" height="147.661" style="fill: rgb(0, 0, 255);"/>
  <title>2Artboard 3</title>
  <path d="M 254.991 150.64 L 112.525 150.64 C 110.545 150.64 108.85 149.791 107.436 148.66 L 101.501 142.725 C 97.544 138.768 92.172 136.506 86.519 136.506 L 42.987 136.506 C 31.397 136.506 21.787 146.116 21.787 157.706 L 21.787 320.243 C 21.787 325.896 24.049 331.266 28.006 335.225 C 32.246 339.465 37.334 341.443 42.987 341.443 C 43.269 341.443 43.553 341.443 44.118 341.443 L 255.275 341.443 C 266.863 341.443 276.475 331.832 276.475 320.243 L 276.475 171.84 C 276.192 160.25 266.581 150.64 254.991 150.64 Z M 50.054 193.041 L 50.054 320.243 C 50.054 324.483 46.662 326.462 45.815 326.744 C 44.684 327.027 41.291 328.44 38.182 325.331 C 36.769 323.918 35.921 322.222 35.921 320.243 L 35.921 157.706 C 35.921 153.749 39.03 150.64 42.987 150.64 L 86.519 150.64 C 88.498 150.64 90.194 151.488 91.607 152.619 L 97.544 158.554 C 101.501 162.512 106.871 164.773 112.525 164.773 L 126.093 164.773 L 121.005 169.861 C 119.592 171.275 117.895 171.84 115.917 171.84 L 71.254 171.84 C 59.665 171.84 50.054 181.451 50.054 193.041 Z M 262.058 320.243 C 262.058 324.2 258.948 327.309 254.991 327.309 L 63.057 327.309 C 63.906 325.048 64.188 322.787 64.188 320.243 L 64.188 193.041 C 64.188 189.083 67.297 185.973 71.254 185.973 L 116.199 185.973 C 121.853 185.973 127.223 183.713 131.18 179.754 L 144.183 166.753 C 145.598 165.338 147.293 164.773 149.273 164.773 L 255.275 164.773 C 259.232 164.773 262.341 167.882 262.341 171.84 L 262.341 320.243 Z"/>
</svg>