<?xml version="1.0" encoding="utf-8"?>
<svg viewBox="0 0 500 500" xmlns="http://www.w3.org/2000/svg">
  <title>2Artboard 3</title>
  <g transform="matrix(2.234507, 0, 0, 2.234507, 6.926555, 112.043747)">
    <path d="M97.85,10H17.434C13.329,10,10,13.328,10,17.434v85.133c0,4.105,3.329,7.434,7.434,7.434h85.133   c4.104,0,7.434-3.328,7.434-7.434V22.832L97.85,10z M30.007,16.436H67.53v24.025H30.007V16.436z M89.992,103.117H30.007V60.359   h59.985V103.117z M89.992,40.461H73.16V16.436h16.832V40.461z"/>
  </g>
  <rect x="311.403" y="11.696" width="147.661" height="147.661" style="fill: rgb(255, 0, 0);"/>
  <rect x="311.403" y="174.707" width="147.661" height="147.661" style="fill: rgb(0, 255, 25);"/>
  <rect x="311.403" y="336.526" width="147.661" height="147.661" style="fill: rgb(0, 0, 255);"/>
</svg>