<svg xmlns="http://www.w3.org/2000/svg" xmlns:xlink="http://www.w3.org/1999/xlink" version="1.1" x="0px" y="0px" viewBox="0 0 48 60" enable-background="new 0 0 48 48" xml:space="preserve"><g><g><path display="none" fill="none" stroke="#000000" stroke-width="4" stroke-linecap="round" stroke-linejoin="round" stroke-miterlimit="10" d="    M23.5,33.5V15.8c0-1.8,2-2.9,3.5-1.9l12.9,8.9c1.3,0.9,1.3,2.9,0,3.8L27,35.4C25.5,36.4,23.5,35.3,23.5,33.5z"/><path display="none" fill="none" stroke="#000000" stroke-width="4" stroke-linecap="round" stroke-linejoin="round" stroke-miterlimit="10" d="    M5.5,33.5V15.8c0-1.8,2-2.9,3.5-1.9l12.9,8.9c1.3,0.9,1.3,2.9,0,3.8L9,35.4C7.5,36.4,5.5,35.3,5.5,33.5z"/><g><path d="M23,39C23,39,23,39,23,39c-2.2,0-4-1.8-4-4v-1l-5.6,4.2C12.7,38.7,11.9,39,11,39c-2.2,0-4-1.8-4-4V13c0-2.2,1.8-4,4-4     c0.9,0,1.7,0.3,2.4,0.8L19,14v-1c0-2.2,1.8-4,4-4c0.9,0,1.7,0.3,2.4,0.8l14.7,11c1,0.8,1.6,1.9,1.6,3.2s-0.6,2.4-1.6,3.2     l-14.7,11C24.7,38.7,23.9,39,23,39z M11,13v22l8.8-6.6c0.6-0.5,1.4-0.5,2.1-0.2c0.7,0.3,1.1,1,1.1,1.8v5l14.7-11L23,13v5     c0,0.8-0.4,1.5-1.1,1.8c-0.7,0.3-1.5,0.3-2.1-0.2L11,13z"/></g></g></g><text x="0" y="63" fill="#000000" font-size="5px" font-weight="bold" font-family="'Helvetica Neue', Helvetica, Arial-Unicode, Arial, Sans-serif">Created by Ruben Semedo</text><text x="0" y="68" fill="#000000" font-size="5px" font-weight="bold" font-family="'Helvetica Neue', Helvetica, Arial-Unicode, Arial, Sans-serif">from the Noun Project</text></svg>