<svg xmlns="http://www.w3.org/2000/svg" xmlns:xlink="http://www.w3.org/1999/xlink" version="1.1" x="0px" y="0px" viewBox="0 0 48 60" enable-background="new 0 0 48 48" xml:space="preserve"><path d="M40.8,12.8c-0.8,0-1.7,0.3-2.4,0.7l-11.9,8.2V17c0-2.4-1.9-4.3-4.2-4.3c-0.8,0-1.7,0.3-2.4,0.7L7.1,22.3c0,0-0.1,0-0.1,0.1  V15c0-1.1-0.9-2-2-2s-2,0.9-2,2v22c0,1.1,0.9,2,2,2s2-0.9,2-2v-7.7c0,0,0.1,0,0.1,0.1l12.8,8.8c0.7,0.5,1.5,0.7,2.4,0.7  c1.1,0,2.2-0.4,2.9-1.2c0.8-0.8,1.3-1.9,1.3-3.1V30l11.9,8.2c0.7,0.5,1.5,0.7,2.4,0.7c1.1,0,2.2-0.4,2.9-1.2  c0.8-0.8,1.3-1.9,1.3-3.1V17C45,14.7,43.1,12.8,40.8,12.8z M22.5,34.6c0,0.1,0,0.2-0.1,0.2c0,0-0.1,0.1-0.2,0.1c0,0-0.1,0-0.1,0  L9.4,26.1c-0.1-0.1-0.1-0.1-0.1-0.2c0-0.1,0-0.2,0.1-0.2l12.8-8.8c0.1,0,0.1,0,0.1,0c0,0,0.2,0,0.2,0.3V34.6z M41,34.6  c0,0.1,0,0.2-0.1,0.2c0,0-0.1,0.1-0.2,0.1c0,0-0.1,0-0.1,0l-12.8-8.8c-0.1-0.1-0.1-0.1-0.1-0.2c0-0.1,0-0.2,0.1-0.2l12.8-8.8  c0.1,0,0.1,0,0.1,0c0,0,0.2,0,0.2,0.3V34.6z"/></svg>
