<svg xmlns:dc="http://purl.org/dc/elements/1.1/" xmlns:cc="http://creativecommons.org/ns#" xmlns:rdf="http://www.w3.org/1999/02/22-rdf-syntax-ns#" xmlns:svg="http://www.w3.org/2000/svg" xmlns="http://www.w3.org/2000/svg" xmlns:sodipodi="http://sodipodi.sourceforge.net/DTD/sodipodi-0.dtd" xmlns:inkscape="http://www.inkscape.org/namespaces/inkscape" version="1.1" x="0px" y="0px" viewBox="0 0 100 125"><g transform="translate(0,-952.36218)"><path style="text-indent:0;text-transform:none;direction:ltr;block-progression:tb;baseline-shift:baseline;color:#000000;enable-background:accumulate;" d="m 8,969.36217 c -1.6274,0 -3,1.3726 -3,3 l 0,54.00003 c 0,1.6274 1.3726,3 3,3 l 58.53125,0 c 2.93676,3.6482 7.43897,6 12.46875,6 8.8129,0 16,-7.1871 16,-16 0,-5.904 -3.2209,-11.0712 -8,-13.8438 l 0,-33.15623 c 0,-1.6274 -1.3726,-3 -3,-3 l -76,0 z m 1,4 74,0 0,30.53123 c -1.28198,-0.3328 -2.61634,-0.5312 -4,-0.5312 -1.40466,0 -2.76296,0.1886 -4.0625,0.5312 L 60.375,989.89339 c -0.96306,-0.7446 -2.11864,-0.7302 -2.84375,0.125 L 39.8125,1009.5809 25.9375,997.83089 c -0.69304,-0.5957 -1.80966,-0.6233 -2.53125,-0.062 L 9,1009.2059 9,973.36217 z m 28,6 c -4.39459,0 -8,3.60541 -8,8.00002 0,4.3946 3.60541,8 8,8 4.39459,0 8,-3.6054 8,-8 0,-4.39461 -3.60541,-8.00002 -8,-8.00002 z m 0,4 c 2.23283,0 4,1.76717 4,4.00002 0,2.2328 -1.76717,4 -4,4 -2.23283,0 -4,-1.7672 -4,-4 0,-2.23285 1.76717,-4.00002 4,-4.00002 z m 22.09375,10.84372 11.8125,11.37501 C 66.18075,1008.367 63,1013.4983 63,1019.3622 c 0,2.1194 0.40225,4.146 1.15625,6 l -55.15625,0 0,-11.0313 15.59375,-12.4062 14.125,11.9375 c 0.77281,0.6545 2.05631,0.5816 2.75,-0.1563 l 17.625,-19.50001 z M 79,1007.3622 c 6.6511,0 12,5.3489 12,12 0,6.6511 -5.3489,12 -12,12 -6.6511,0 -12,-5.3489 -12,-12 0,-6.6511 5.3489,-12 12,-12 z m -7,10 c -1.10457,0 -2,0.8954 -2,2 0,1.1046 0.89543,2 2,2 l 14,0 c 1.10457,0 2,-0.8954 2,-2 0,-1.1046 -0.89543,-2 -2,-2 l -14,0 z" fill="#000000" fill-opacity="1" stroke="none" marker="none" visibility="visible" display="inline" overflow="visible"/></g></svg>
