<svg xmlns="http://www.w3.org/2000/svg" xmlns:xlink="http://www.w3.org/1999/xlink" version="1.1" x="0px" y="0px" viewBox="0 0 48 60" enable-background="new 0 0 48 48" xml:space="preserve"><path d="M31.7,11.5c-0.8,0-1.7,0.3-2.4,0.7l-12.9,8.9c-0.2,0.1-0.3,0.3-0.5,0.4V13c0-1.1-0.9-2-2-2s-2,0.9-2,2v23c0,1.1,0.9,2,2,2  s2-0.9,2-2v-8.2c0.2,0.1,0.3,0.3,0.5,0.4L29.4,37c0.7,0.5,1.5,0.7,2.4,0.8c1.1,0,2.2-0.4,3-1.2c0.8-0.8,1.3-1.9,1.3-3.1V15.8  C36,13.4,34.1,11.5,31.7,11.5z M32,33.5c0,0.1,0,0.2-0.1,0.2c-0.1,0.1-0.1,0.2-0.3,0l-12.9-8.9c-0.1-0.1-0.1-0.2-0.1-0.2  s0-0.2,0.1-0.2l12.9-8.9c0.1,0,0.1,0,0.1,0c0,0,0.3,0,0.3,0.3V33.5z"/><text x="0" y="63" fill="#000000" font-size="5px" font-weight="bold" font-family="'Helvetica Neue', Helvetica, Arial-Unicode, Arial, Sans-serif">Created by Ruben Semedo</text><text x="0" y="68" fill="#000000" font-size="5px" font-weight="bold" font-family="'Helvetica Neue', Helvetica, Arial-Unicode, Arial, Sans-serif">from the Noun Project</text></svg>