<svg xmlns="http://www.w3.org/2000/svg" xmlns:xlink="http://www.w3.org/1999/xlink" version="1.1" x="0px" y="0px" viewBox="0 0 48 60" enable-background="new 0 0 48 48" xml:space="preserve"><g><path d="M19,39C19,39,19,39,19,39c0,0-2.7,0-4.5,0c-0.5,0-0.9,0-1.2,0c-0.6,0.1-1.3-0.1-1.8-0.6C11.2,38,11,37.5,11,37c0,0,0,0,0,0   V11c0-1.1,0.9-2,2-2h6c1.1,0,2,0.9,2,2v26c0,0.5-0.2,1-0.6,1.4C20,38.8,19.5,39,19,39z M15,35c0.6,0,1.4,0,2,0V13h-2V35z"/></g><g><path d="M35,39C35,39,35,39,35,39c0,0-2.7,0-4.5,0c-0.5,0-0.9,0-1.2,0c-0.6,0.1-1.3-0.1-1.8-0.6C27.2,38,27,37.5,27,37c0,0,0,0,0,0   V11c0-1.1,0.9-2,2-2h6c1.1,0,2,0.9,2,2v26c0,0.5-0.2,1-0.6,1.4C36,38.8,35.5,39,35,39z M31,35c0.6,0,1.4,0,2,0V13h-2V35z"/></g><text x="0" y="63" fill="#000000" font-size="5px" font-weight="bold" font-family="'Helvetica Neue', Helvetica, Arial-Unicode, Arial, Sans-serif">Created by Ruben Semedo</text><text x="0" y="68" fill="#000000" font-size="5px" font-weight="bold" font-family="'Helvetica Neue', Helvetica, Arial-Unicode, Arial, Sans-serif">from the Noun Project</text></svg>