<svg xmlns="http://www.w3.org/2000/svg" xmlns:xlink="http://www.w3.org/1999/xlink" version="1.1" x="0px" y="0px" viewBox="0 0 48 60" enable-background="new 0 0 48 48" xml:space="preserve"><g><g><path d="M26.1,37.8L26.1,37.8c-0.8,0-1.7-0.3-2.4-0.8l-12.9-8.9C9.7,27.4,9,26.1,9,24.6s0.7-2.7,1.9-3.5l12.9-8.9    c0.7-0.5,1.5-0.7,2.4-0.7c2.3,0,4.3,1.9,4.3,4.3v17.7c0,1.2-0.5,2.3-1.3,3.1C28.3,37.4,27.2,37.8,26.1,37.8z M26.1,15.5    c0,0-0.1,0-0.1,0l-12.9,8.9C13,24.5,13,24.6,13,24.6s0,0.2,0.1,0.2L26,33.7c0.2,0.1,0.2,0,0.3,0c0.1-0.1,0.1-0.1,0.1-0.2V15.8    C26.4,15.5,26.1,15.5,26.1,15.5z"/></g><g><path d="M35,38c-1.1,0-2-0.9-2-2V13c0-1.1,0.9-2,2-2s2,0.9,2,2v23C37,37.1,36.1,38,35,38z"/></g></g><text x="0" y="63" fill="#000000" font-size="5px" font-weight="bold" font-family="'Helvetica Neue', Helvetica, Arial-Unicode, Arial, Sans-serif">Created by Ruben Semedo</text><text x="0" y="68" fill="#000000" font-size="5px" font-weight="bold" font-family="'Helvetica Neue', Helvetica, Arial-Unicode, Arial, Sans-serif">from the Noun Project</text></svg>