<?xml version="1.0" encoding="utf-8"?>
<svg x="0px" y="0px" viewBox="0 0 100 125" xmlns="http://www.w3.org/2000/svg">
  <path d="M 83.464 77.664 L 83.464 27.664 L 33.464 27.664 L 33.464 20.664 L 12.464 20.664 L 12.464 41.664 L 19.464 41.664 L 19.464 91.664 L 69.464 91.664 L 69.464 98.664 L 90.464 98.664 L 90.464 77.664 L 83.464 77.664 Z M 19.464 27.664 L 26.464 27.664 L 26.464 34.664 L 19.464 34.664 L 19.464 27.664 Z M 69.464 77.664 L 69.464 84.664 L 26.464 84.664 L 26.464 41.664 L 33.464 41.664 L 33.464 34.664 L 76.464 34.664 L 76.464 77.664 L 69.464 77.664 Z M 83.464 91.664 L 76.464 91.664 L 76.464 84.664 L 83.464 84.664 L 83.464 91.664 Z"/>
</svg>