<?xml version="1.0" encoding="utf-8"?>
<svg style="enable-background:new 0 0 24 24;" x="0px" y="0px" viewBox="0 0 24 30" xmlns="http://www.w3.org/2000/svg">
  <g transform="matrix(0.718874, 0, 0, 0.718874, 3.58435, 6.044198)">
    <path d="M2.5,24h-2C0.224,24,0,23.776,0,23.5v-2C0,21.224,0.224,21,0.5,21h2C2.776,21,3,21.224,3,21.5v2C3,23.776,2.776,24,2.5,24z    M1,23h1v-1H1V23z"/>
    <path d="M23.5,3h-2C21.224,3,21,2.776,21,2.5v-2C21,0.224,21.224,0,21.5,0h2C23.776,0,24,0.224,24,0.5v2C24,2.776,23.776,3,23.5,3z    M22,2h1V1h-1V2z"/>
    <path d="M2.5,22c-0.128,0-0.256-0.049-0.354-0.146c-0.195-0.195-0.195-0.512,0-0.707l19-19c0.195-0.195,0.512-0.195,0.707,0   s0.195,0.512,0,0.707l-19,19C2.756,21.951,2.628,22,2.5,22z"/>
  </g>
  <text x="0" y="39" fill="#000000" font-size="5px" font-weight="bold" font-family="'Helvetica Neue', Helvetica, Arial-Unicode, Arial, Sans-serif" style="white-space: pre;">Created by icon 54</text>
  <text x="0" y="44" fill="#000000" font-size="5px" font-weight="bold" font-family="'Helvetica Neue', Helvetica, Arial-Unicode, Arial, Sans-serif" style="white-space: pre;">from the Noun Project</text>
</svg>