<?xml version="1.0" encoding="utf-8"?>
<svg viewBox="0 0 500 500" xmlns="http://www.w3.org/2000/svg">
  <title>2Artboard 3</title>
  <title>1Artboard 66</title>
  <path d="M 276.755 327.074 L 276.755 268.085 L 319.598 268.085 L 288.439 224.212 L 250.049 172.475 L 249.275 172.475 L 210.885 224.213 L 179.724 268.085 L 222.568 268.085 L 222.568 327.074 L 276.755 327.074" style="" transform="matrix(-0.624504, 0.781022, -0.781022, -0.624504, 600.654563, 210.768971)"/>
  <g data-name="66.target" id="g-1" transform="matrix(9.272727, 0, 0, 9.272727, 7.05468, 13.28244)" style="">
    <circle class="cls-1" cx="12" cy="12" r="9" style="fill: none; stroke: rgb(0, 0, 0); stroke-linecap: round; stroke-linejoin: round; stroke-width: 2px;"/>
    <line class="cls-1" x1="12" x2="12" y1="1" y2="7" style="fill: none; stroke: rgb(0, 0, 0); stroke-linecap: round; stroke-linejoin: round; stroke-width: 2px;"/>
    <line class="cls-1" x1="12" x2="12" y1="17" y2="23" style="fill: none; stroke: rgb(0, 0, 0); stroke-linecap: round; stroke-linejoin: round; stroke-width: 2px;"/>
    <line class="cls-1" x1="1" x2="7" y1="12" y2="12" style="fill: none; stroke: rgb(0, 0, 0); stroke-linecap: round; stroke-linejoin: round; stroke-width: 2px;"/>
    <line class="cls-1" x1="17" x2="23" y1="12" y2="12" style="fill: none; stroke: rgb(0, 0, 0); stroke-linecap: round; stroke-linejoin: round; stroke-width: 2px;"/>
  </g>
  <g data-name="66.target" id="g-2" transform="matrix(9.272727, 0, 0, 9.272727, 270.399902, 265.951477)" style="">
    <circle class="cls-1" cx="12" cy="12" r="9" style="fill: none; stroke: rgb(0, 0, 0); stroke-linecap: round; stroke-linejoin: round; stroke-width: 2px;"/>
    <line class="cls-1" x1="12" x2="12" y1="1" y2="7" style="fill: none; stroke: rgb(0, 0, 0); stroke-linecap: round; stroke-linejoin: round; stroke-width: 2px;"/>
    <line class="cls-1" x1="12" x2="12" y1="17" y2="23" style="fill: none; stroke: rgb(0, 0, 0); stroke-linecap: round; stroke-linejoin: round; stroke-width: 2px;"/>
    <line class="cls-1" x1="1" x2="7" y1="12" y2="12" style="fill: none; stroke: rgb(0, 0, 0); stroke-linecap: round; stroke-linejoin: round; stroke-width: 2px;"/>
    <line class="cls-1" x1="17" x2="23" y1="12" y2="12" style="fill: none; stroke: rgb(0, 0, 0); stroke-linecap: round; stroke-linejoin: round; stroke-width: 2px;"/>
  </g>
</svg>